<?xml version="1.0" encoding="UTF-8"?>
<svg width="27px" height="27px" viewBox="0 0 27 27" version="1.1" xmlns="http://www.w3.org/2000/svg" xmlns:xlink="http://www.w3.org/1999/xlink">
    <!-- Generator: Sketch 48.2 (47327) - http://www.bohemiancoding.com/sketch -->
    <title>google-icon</title>
    <desc>Created with Sketch.</desc>
    <defs></defs>
    <g id="Sign-In" stroke="none" stroke-width="1" fill="none" fill-rule="evenodd" transform="translate(-482.000000, -579.000000)">
        <g id="Sign-In-" transform="translate(375.000000, 208.000000)">
            <g id="Google-SSO-Button" transform="translate(90.000000, 355.000000)">
                <g id="Google" transform="translate(17.000000, 16.000000)">
                    <g id="google-icon">
                        <path d="M18.72,7.23 L22.53,3.51 C20.19,1.335 17.145,0 13.5,0 C8.22,0 3.66,3.03 1.44,7.44 L5.805,10.83 C6.9,7.575 9.93,5.22 13.5,5.22 C16.035,5.22 17.745,6.315 18.72,7.23 Z" id="Shape" fill="#EA4335"></path>
                        <path d="M26.175,11.04 L14.0201349,11.0400002 L14.0201349,16.0500002 L20.94,16.05 C20.79,17.295 19.98,19.17 18.18,20.43 L22.44,23.73 C24.99,21.375 26.46,17.91 26.46,13.8 C26.46,12.69 26.37,11.88 26.175,11.04 Z" id="Shape" fill="#4285F4"></path>
                        <path d="M5.82,16.17 C5.535,15.33 5.37,14.43 5.37,13.5 C5.37,12.57 5.535,11.67 5.805,10.83 L1.44,7.44 C0.525,9.27 0,11.325 0,13.5 C0,15.675 0.525,17.73 1.44,19.56 L5.82,16.17 L5.82,16.17 Z" id="Shape" fill="#FBBC05"></path>
                        <path d="M13.5,27 C17.145,27 20.205,25.8 22.44,23.73 L18.18,20.43 C17.04,21.225 15.51,21.78 13.5,21.78 C9.93,21.78 6.9,19.425 5.82,16.17 L1.455,19.56 C3.675,23.97 8.22,27 13.5,27 L13.5,27 Z" id="Shape" fill="#34A853"></path>
                        <polygon id="Shape" points="0 0 27 0 27 27 0 27"></polygon>
                    </g>
                </g>
            </g>
        </g>
    </g>
</svg>