<svg id="Group_40755" data-name="Group 40755" xmlns="http://www.w3.org/2000/svg" width="67.162" height="71.871" viewBox="0 0 67.162 71.871">
  <ellipse id="Ellipse_1796" data-name="Ellipse 1796" cx="33.5" cy="35.5" rx="33.5" ry="35.5" transform="translate(0.162 0.216)" fill="#fff"/>
  <g id="Group_40754" data-name="Group 40754" transform="translate(0)">
    <rect id="Rectangle_16491" data-name="Rectangle 16491" width="66.571" height="71.871" fill="none"/>
    <g id="guidance" transform="translate(15.412 18.025)">
      <path id="Path_80599" data-name="Path 80599" d="M221.712,53H202.086A1.132,1.132,0,0,0,201,54.173V87.715a1.132,1.132,0,0,0,1.086,1.173h19.626a1.132,1.132,0,0,0,1.086-1.173V54.173A1.132,1.132,0,0,0,221.712,53Z" transform="translate(-187.168 -53)" fill="#f3f5f9"/>
      <path id="Path_80600" data-name="Path 80600" d="M362.4,54.173V87.715a1.132,1.132,0,0,1-1.086,1.173H351.5V53h9.813A1.132,1.132,0,0,1,362.4,54.173Z" transform="translate(-326.769 -53)" fill="#d6e1f1"/>
      <path id="Path_80601" data-name="Path 80601" d="M238.291,203.864a1.031,1.031,0,0,0-1.536-.041l-1.357,1.394-.464-.477a1.031,1.031,0,0,0-1.536.041,1.24,1.24,0,0,0,.038,1.658l1.213,1.247a1.029,1.029,0,0,0,1.5,0l2.106-2.164A1.24,1.24,0,0,0,238.291,203.864Z" transform="translate(-216.942 -191.733)" fill="#f25a3c"/>
      <path id="Path_80602" data-name="Path 80602" d="M339.328,203.5h-7.242a1.176,1.176,0,0,0,0,2.346h7.242a1.176,1.176,0,0,0,0-2.346Z" transform="translate(-307.753 -191.733)" fill="#d6e1f1"/>
      <path id="Path_80603" data-name="Path 80603" d="M359.43,204.673a1.132,1.132,0,0,1-1.086,1.173H351.5V203.5h6.844A1.132,1.132,0,0,1,359.43,204.673Z" transform="translate(-326.769 -191.733)" fill="#b4c5da"/>
      <path id="Path_80604" data-name="Path 80604" d="M339.328,263.5h-7.242a1.176,1.176,0,0,0,0,2.346h7.242a1.176,1.176,0,0,0,0-2.346Z" transform="translate(-307.753 -247.042)" fill="#d6e1f1"/>
      <path id="Path_80605" data-name="Path 80605" d="M359.43,264.673a1.132,1.132,0,0,1-1.086,1.173H351.5V263.5h6.844A1.132,1.132,0,0,1,359.43,264.673Z" transform="translate(-326.769 -247.042)" fill="#b4c5da"/>
      <path id="Path_80606" data-name="Path 80606" d="M339.328,353.5h-7.242a1.176,1.176,0,0,0,0,2.346h7.242a1.176,1.176,0,0,0,0-2.346Z" transform="translate(-307.753 -330.005)" fill="#d6e1f1"/>
      <path id="Path_80607" data-name="Path 80607" d="M359.43,354.673a1.132,1.132,0,0,1-1.086,1.173H351.5V353.5h6.844A1.132,1.132,0,0,1,359.43,354.673Z" transform="translate(-326.769 -330.005)" fill="#b4c5da"/>
      <path id="Path_80608" data-name="Path 80608" d="M339.328,413.5h-7.242a1.176,1.176,0,0,0,0,2.346h7.242a1.176,1.176,0,0,0,0-2.346Z" transform="translate(-307.753 -385.314)" fill="#d6e1f1"/>
      <path id="Path_80609" data-name="Path 80609" d="M359.43,414.673a1.132,1.132,0,0,1-1.086,1.173H351.5V413.5h6.844A1.132,1.132,0,0,1,359.43,414.673Z" transform="translate(-326.769 -385.314)" fill="#b4c5da"/>
      <path id="Path_80610" data-name="Path 80610" d="M332.086,123.846h7.242a1.176,1.176,0,0,0,0-2.346h-7.242a1.176,1.176,0,0,0,0,2.346Z" transform="translate(-307.753 -116.144)" fill="#d6e1f1"/>
      <path id="Path_80611" data-name="Path 80611" d="M359.43,122.673a1.132,1.132,0,0,1-1.086,1.173H351.5V121.5h6.844A1.132,1.132,0,0,1,359.43,122.673Z" transform="translate(-326.769 -116.144)" fill="#b4c5da"/>
      <path id="Path_80612" data-name="Path 80612" d="M59.661,321.28a1.012,1.012,0,0,0,.973,1.019H64.91a1.012,1.012,0,0,0,.973-1.022l.306-12.576-3.578-.7-3.29.7Z" transform="translate(-56.119 -286.411)" fill="#544473"/>
      <path id="Path_80613" data-name="Path 80613" d="M113.991,308.782l-.34,14.028a1.13,1.13,0,0,1-1.086,1.14H110V308Z" transform="translate(-102.758 -288.062)" fill="#413559"/>
      <path id="Path_80614" data-name="Path 80614" d="M28.032,105.916a1.565,1.565,0,0,0-2.206-.343l-2.451,1.811-3.6-2.2a1.225,1.225,0,0,0-.64-.182H12.6a2.706,2.706,0,0,0-2.6,2.8v10.045a2.009,2.009,0,0,0,1.928,2.081H20.07l.252-9.673,3.441,1.612,4.015-3.436a1.875,1.875,0,0,0,.253-2.517Z" transform="translate(-10 -97.64)" fill="#ffdf40"/>
      <path id="Path_80615" data-name="Path 80615" d="M121.286,108.433l-4.015,3.436-3.441-1.612-.253,9.673H110V105h2.641a1.224,1.224,0,0,1,.64.182l3.6,2.2,2.452-1.811a1.564,1.564,0,0,1,2.206.343A1.875,1.875,0,0,1,121.286,108.433Z" transform="translate(-103.507 -97.64)" fill="#ffbe40"/>
      <path id="Path_80616" data-name="Path 80616" d="M244.682,355.852l.324-.349a1.24,1.24,0,0,0,0-1.659,1.03,1.03,0,0,0-1.536,0l-.324.349-.318-.344a1.031,1.031,0,0,0-1.536,0,1.24,1.24,0,0,0,0,1.659l.318.344-.316.342a1.24,1.24,0,0,0,0,1.659,1.03,1.03,0,0,0,1.536,0l.316-.341.316.342a1.031,1.031,0,0,0,1.536,0,1.24,1.24,0,0,0,0-1.659Z" transform="translate(-224.246 -330.005)" fill="#79cc52"/>
      <ellipse id="Ellipse_1469" data-name="Ellipse 1469" cx="3.409" cy="3.68" rx="3.409" ry="3.68" transform="translate(3.084)" fill="#d69a8b"/>
      <path id="Path_80617" data-name="Path 80617" d="M113.409,3.68A3.556,3.556,0,0,1,110,7.36V0A3.556,3.556,0,0,1,113.409,3.68Z" transform="translate(-103.507)" fill="#c28678"/>
    </g>
  </g>
</svg>
