<svg width="4200" height="2000" viewBox="0 0 4200 2000" fill="none" xmlns="http://www.w3.org/2000/svg">
<g clip-path="url(#clip0)">
<rect width="4200" height="2000" fill="white"/>
<path opacity="0.96" fill-rule="evenodd" clip-rule="evenodd" d="M0 0H4200V2000H0V0Z" fill="#383982"/>
<path fill-rule="evenodd" clip-rule="evenodd" d="M0 0H4200V2000H0V0Z" fill="url(#paint0_linear)"/>
<path opacity="0.2" d="M450.502 837.573C249.45 851.464 13.1686 775.573 -80.498 729.073V2191.07H4250.5C4391.34 2073.41 4594.6 834.973 4281 824.573C3889 811.573 3856 507.573 3451 497.073C3046 486.573 2966.5 765.573 2559 765.573C2094.82 765.573 1981.54 368.573 1528 368.573C1053.5 368.573 899.002 806.586 450.502 837.573Z" fill="#CDA1F1"/>
<path opacity="0.2" d="M370.502 1208.87C141.002 1208.87 6.16862 1052.2 -59.998 973.87L-44.498 2393.87H4294V1208.87C3956 1190.87 3598 747.37 3167.5 747.37C2964 747.37 2734.52 901.87 2510 901.87C2239.5 901.87 2110.5 739.216 1713.5 747.37C1257.5 756.736 852.502 1208.87 370.502 1208.87Z" fill="#CDA1F1"/>
<path opacity="0.2" d="M1955.5 637.073C2228 661.073 2499 475.573 2725.5 505.573C2952 535.573 3245.27 695.281 3533.5 713.573C3825 732.073 4165.5 337.573 4436 822.073C4490.97 920.523 4330.83 2061.41 4236 2235.07H-34.4987C-187.165 2046.41 -407.599 615.573 -67.9987 689.573C356.501 782.073 511.001 488.074 824.001 338.574C1074.4 218.974 1220.5 276.573 1373 369.074C1525.5 461.574 1703.83 614.908 1955.5 637.073Z" fill="#CDA1F1"/>
<path opacity="0.2" d="M2111.04 1342.17C2438 1342.17 2463.5 1184.82 2716.5 1184.82C2969.5 1184.82 3005.5 1342.17 3238 1342.17C3470.5 1342.17 3881.5 1342.17 4010.5 959.819C4111.49 660.488 4273.46 665.307 4459 821.319C4625.5 961.319 4418 2493.03 4248 2563.32L-24.999 2552.82C-161.166 2511.37 -208.663 1599.94 -188.999 1289.82C-164.999 911.319 14.7192 766.544 254.501 756.32C618.001 740.82 785.502 1253.82 1330.5 1125.32C1875.5 996.82 1780.7 1342.17 2111.04 1342.17Z" fill="#CDA1F1"/>
</g>
<defs>
<linearGradient id="paint0_linear" x1="228" y1="491.211" x2="436.98" y2="2761.32" gradientUnits="userSpaceOnUse">
<stop stop-color="#B92BF0"/>
<stop offset="1" stop-color="#8313DD"/>
</linearGradient>
<clipPath id="clip0">
<rect width="4200" height="2000" fill="white"/>
</clipPath>
</defs>
</svg>
