<svg xmlns="http://www.w3.org/2000/svg" xmlns:xlink="http://www.w3.org/1999/xlink" width="68" height="71.871" viewBox="0 0 68 71.871">
  <defs>
    <clipPath id="clip-path">
      <rect id="Rectangle_17562" data-name="Rectangle 17562" width="41.049" height="44.318" fill="#fff" stroke="#707070" stroke-width="1"/>
    </clipPath>
  </defs>
  <g id="Group_40755" data-name="Group 40755" transform="translate(0.113)">
    <ellipse id="Ellipse_1796" data-name="Ellipse 1796" cx="34" cy="35.5" rx="34" ry="35.5" transform="translate(-0.113 0.216)" fill="#fff"/>
    <g id="Group_40754" data-name="Group 40754" transform="translate(0)">
      <rect id="Rectangle_16491" data-name="Rectangle 16491" width="66.571" height="71.871" fill="none"/>
      <g id="Mask_Group_1" data-name="Mask Group 1" transform="translate(12.948 12.808)" clip-path="url(#clip-path)">
        <g id="question-and-answer" transform="translate(0.001)">
          <path id="Path_88772" data-name="Path 88772" d="M41.153,27.918c-.793-7.142-6.562-12.41-13.218-12.069S16,22.025,15.837,29.216s4.849,13.3,11.481,13.987c.4.04.8.061,1.205.061a11.949,11.949,0,0,0,5.428-1.307.992.992,0,0,1,.727-.092l2.993.9a1.853,1.853,0,0,0,1.86-.494,2.217,2.217,0,0,0,.576-1.972l-.633-3.245a1.229,1.229,0,0,1,.137-.792,14.574,14.574,0,0,0,1.541-8.341Z" transform="translate(-0.196 1.053)" fill="#40596b"/>
          <path id="Path_88773" data-name="Path 88773" d="M32.415,34.317a.972.972,0,0,1-.88-.583L27.529,25.07l-4.007,8.664a.945.945,0,0,1-1.312.473,1.1,1.1,0,0,1-.438-1.416l4.887-10.551a.981.981,0,0,1,1.749,0L33.295,32.79a1.128,1.128,0,0,1-.044,1.029.963.963,0,0,1-.835.5Z" transform="translate(0.813 2.616)" fill="#fff"/>
          <path id="Path_88774" data-name="Path 88774" d="M23.877,29.765a1.058,1.058,0,0,1-.019-2.11l6.883-.138a1.058,1.058,0,0,1,.036,2.11l-6.883.138Z" transform="translate(1.024 4.163)" fill="#fff"/>
          <path id="Path_88775" data-name="Path 88775" d="M25.867,6.838A13.069,13.069,0,0,0,14.444,2.618a13.768,13.768,0,0,0-10.5,8.047,15.8,15.8,0,0,0,.348,13.9,1.2,1.2,0,0,1,.136.786L3.7,29.074a2.217,2.217,0,0,0,.575,1.972,1.853,1.853,0,0,0,1.859.5l3.427-1.028a.98.98,0,0,1,.732.093,12.807,12.807,0,0,0,5.9,1.438,13.146,13.146,0,0,0,2.067-.165,14.026,14.026,0,0,0,10.931-10,15.614,15.614,0,0,0-3.32-15.045Z" transform="translate(-2.5 -2.497)" fill="#54c0eb"/>
          <g id="Group_40722" data-name="Group 40722" transform="translate(7.818 8.445)">
            <path id="Path_88776" data-name="Path 88776" d="M15.03,21.828A6.111,6.111,0,0,1,9.166,15.5,6.111,6.111,0,0,1,15.03,9.166,6.111,6.111,0,0,1,20.894,15.5,6.117,6.117,0,0,1,15.03,21.828Zm0-10.551A4.074,4.074,0,0,0,11.121,15.5a4.074,4.074,0,0,0,3.909,4.221A4.074,4.074,0,0,0,18.939,15.5,4.074,4.074,0,0,0,15.03,11.276Z" transform="translate(-9.166 -9.166)" fill="#fff"/>
            <path id="Path_88777" data-name="Path 88777" d="M19.052,21.33a.942.942,0,0,1-.691-.309L14.452,16.8a1.115,1.115,0,0,1,0-1.492.927.927,0,0,1,1.382,0l3.909,4.221a1.117,1.117,0,0,1,.212,1.15.98.98,0,0,1-.9.651Z" transform="translate(-8.302 -7.613)" fill="#fff"/>
          </g>
        </g>
      </g>
    </g>
  </g>
</svg>
