<svg xmlns="http://www.w3.org/2000/svg" width="53" height="53.162" viewBox="0 0 53 53.162">
  <g id="Group_40758" data-name="Group 40758" transform="translate(-24 -745)">
    <g id="Group_40759" data-name="Group 40759">
      <g id="Group_40756" data-name="Group 40756" transform="translate(1 106)">
        <circle id="Ellipse_1796" data-name="Ellipse 1796" cx="26.5" cy="26.5" r="26.5" transform="translate(23 639)" fill="#fff"/>
        <g id="Group_40754" data-name="Group 40754" transform="translate(1142 2370.162)">
          <rect id="Rectangle_16491" data-name="Rectangle 16491" width="53" height="53" transform="translate(-1119 -1731)" fill="none"/>
        </g>
      </g>
      <g id="instant" transform="translate(-4.329 727.02)">
        <g id="Group_40837" data-name="Group 40837" transform="translate(40.651 26.696)">
          <g id="Group_40834" data-name="Group 40834" transform="translate(0 3.549)">
            <g id="Group_40809" data-name="Group 40809" transform="translate(0.337 1.726)">
              <circle id="Ellipse_1804" data-name="Ellipse 1804" cx="13.805" cy="13.805" r="13.805" fill="#ffa91a"/>
            </g>
            <g id="Group_40811" data-name="Group 40811" transform="translate(0.987 2.579)">
              <g id="Group_40810" data-name="Group 40810">
                <path id="Path_88857" data-name="Path 88857" d="M49.344,85.037a.321.321,0,0,1-.266-.14,13.114,13.114,0,0,1,.352-15.473,13.2,13.2,0,0,1,6.82-4.668.329.329,0,0,1,.4.222.325.325,0,0,1-.221.4A12.564,12.564,0,0,0,47.378,77.4a12.418,12.418,0,0,0,2.232,7.124.325.325,0,0,1-.266.511ZM57.6,65.1a.324.324,0,0,1-.32-.268.327.327,0,0,1,.261-.377.325.325,0,1,1,.115.64A.333.333,0,0,1,57.6,65.1Z" transform="translate(-46.729 -64.45)" fill="#ffc91d"/>
              </g>
            </g>
            <g id="Group_40812" data-name="Group 40812" transform="translate(3.602 4.992)">
              <path id="Path_88858" data-name="Path 88858" d="M82.3,79.316A13.805,13.805,0,0,1,62.844,98.772,13.805,13.805,0,1,0,82.3,79.316Z" transform="translate(-62.844 -79.316)" fill="#f79219"/>
            </g>
            <g id="Group_40813" data-name="Group 40813" transform="translate(3.983 5.372)">
              <path id="Path_88859" data-name="Path 88859" d="M84.7,81.661a13.805,13.805,0,0,1-19.506,19.506A13.805,13.805,0,1,0,84.7,81.661Z" transform="translate(-65.189 -81.661)" fill="#ef7816"/>
            </g>
            <g id="Group_40814" data-name="Group 40814" transform="translate(0 1.608)">
              <path id="Path_88860" data-name="Path 88860" d="M47.161,60.89l-2.2-2.2a.756.756,0,0,0-1.069,0l-3.023,3.023a.756.756,0,0,0,0,1.069l2.243,2.243A13.882,13.882,0,0,1,47.161,60.89Z" transform="translate(-40.651 -58.473)" fill="#ef7816"/>
            </g>
            <g id="Group_40815" data-name="Group 40815" transform="translate(21.817 1.608)">
              <path id="Path_88861" data-name="Path 88861" d="M181.383,61.716l-3.023-3.023a.756.756,0,0,0-1.07,0l-2.225,2.225a13.882,13.882,0,0,1,4.03,4.154l2.287-2.287A.756.756,0,0,0,181.383,61.716Z" transform="translate(-175.066 -58.472)" fill="#ef7816"/>
            </g>
            <g id="Group_40816" data-name="Group 40816" transform="translate(12.093)">
              <path id="Path_88862" data-name="Path 88862" d="M117.2,50.289a13.9,13.9,0,0,1,2.121.162V48.563h-4.17V50.44A13.917,13.917,0,0,1,117.2,50.289Z" transform="translate(-115.154 -48.563)" fill="#ef7816"/>
            </g>
            <g id="Group_40817" data-name="Group 40817" transform="translate(3.876 5.266)">
              <circle id="Ellipse_1805" data-name="Ellipse 1805" cx="10.265" cy="10.265" r="10.265" fill="#fff"/>
            </g>
            <g id="Group_40819" data-name="Group 40819" transform="translate(13.434 6.143)">
              <g id="Group_40818" data-name="Group 40818">
                <path id="Path_88863" data-name="Path 88863" d="M124.124,90.085a.708.708,0,0,1-.708-.708V87.121a.708.708,0,0,1,1.416,0v2.257A.708.708,0,0,1,124.124,90.085Z" transform="translate(-123.416 -86.413)" fill="#d1d3d4"/>
              </g>
            </g>
            <g id="Group_40820" data-name="Group 40820" transform="translate(13.434 21.512)">
              <path id="Path_88864" data-name="Path 88864" d="M124.124,184.77a.708.708,0,0,1-.708-.708v-2.257a.708.708,0,1,1,1.416,0v2.257A.708.708,0,0,1,124.124,184.77Z" transform="translate(-123.416 -181.098)" fill="#d1d3d4"/>
            </g>
            <g id="Group_40826" data-name="Group 40826" transform="translate(4.621 14.956)">
              <g id="Group_40823" data-name="Group 40823" transform="translate(15.368)">
                <g id="Group_40822" data-name="Group 40822">
                  <g id="Group_40821" data-name="Group 40821">
                    <path id="Path_88865" data-name="Path 88865" d="M166.773,142.124h-2.257a.708.708,0,0,1,0-1.416h2.257a.708.708,0,1,1,0,1.416Z" transform="translate(-163.808 -140.708)" fill="#d1d3d4"/>
                  </g>
                </g>
              </g>
              <g id="Group_40825" data-name="Group 40825">
                <g id="Group_40824" data-name="Group 40824">
                  <path id="Path_88866" data-name="Path 88866" d="M72.088,142.124H69.831a.708.708,0,1,1,0-1.416h2.257a.708.708,0,1,1,0,1.416Z" transform="translate(-69.123 -140.708)" fill="#d1d3d4"/>
                </g>
              </g>
            </g>
            <g id="Group_40829" data-name="Group 40829" transform="translate(12.726 9.174)">
              <g id="Group_40828" data-name="Group 40828">
                <g id="Group_40827" data-name="Group 40827">
                  <path id="Path_88867" data-name="Path 88867" d="M120.473,112.858a1.416,1.416,0,0,1-1-2.417l4.941-4.941a1.416,1.416,0,1,1,2,2l-4.941,4.941A1.412,1.412,0,0,1,120.473,112.858Z" transform="translate(-119.058 -105.086)" fill="#ffa91a"/>
                </g>
              </g>
            </g>
            <g id="Group_40830" data-name="Group 40830" transform="translate(12.821 9.269)">
              <path id="Path_88868" data-name="Path 88868" d="M126.9,105.989a1.412,1.412,0,0,0-.491-.32,1.416,1.416,0,0,1-.32,1.511l-4.941,4.941a1.418,1.418,0,0,1-1.511.32,1.416,1.416,0,0,0,2.323.492l4.941-4.941A1.416,1.416,0,0,0,126.9,105.989Z" transform="translate(-119.639 -105.669)" fill="#f79219"/>
            </g>
            <g id="Group_40832" data-name="Group 40832" transform="translate(11.575 12.965)">
              <g id="Group_40831" data-name="Group 40831">
                <circle id="Ellipse_1806" data-name="Ellipse 1806" cx="2.566" cy="2.566" r="2.566" fill="#ffa91a"/>
              </g>
            </g>
            <g id="Group_40833" data-name="Group 40833" transform="translate(11.967 13.356)">
              <path id="Path_88869" data-name="Path 88869" d="M117.92,130.852a2.567,2.567,0,0,1-3.538,3.538,2.566,2.566,0,1,0,3.538-3.538Z" transform="translate(-114.382 -130.852)" fill="#f79219"/>
            </g>
          </g>
          <g id="Group_40835" data-name="Group 40835" transform="translate(10.745 0)">
            <path id="Path_88870" data-name="Path 88870" d="M112.959,26.7h-5.354a.756.756,0,0,0-.756.756v2.037a.756.756,0,0,0,.756.756h5.354a.756.756,0,0,0,.756-.756V27.452A.756.756,0,0,0,112.959,26.7Z" transform="translate(-106.849 -26.696)" fill="#ffa91a"/>
          </g>
          <g id="Group_40836" data-name="Group 40836" transform="translate(10.744 0)">
            <path id="Path_88871" data-name="Path 88871" d="M112.958,26.7H112.9v1.981a.756.756,0,0,1-.756.756h-5.3v.055a.756.756,0,0,0,.756.756h5.354a.756.756,0,0,0,.756-.756V27.452A.756.756,0,0,0,112.958,26.7Z" transform="translate(-106.848 -26.696)" fill="#f79219"/>
          </g>
        </g>
        <g id="Group_40842" data-name="Group 40842" transform="translate(48.655 49.891)">
          <g id="Group_40838" data-name="Group 40838" transform="translate(0 0)">
            <circle id="Ellipse_1807" data-name="Ellipse 1807" cx="6.173" cy="6.173" r="6.173" fill="#e63950"/>
          </g>
          <g id="Group_40839" data-name="Group 40839" transform="translate(1.421 1.421)">
            <path id="Path_88872" data-name="Path 88872" d="M107.414,178.356a6.174,6.174,0,0,1-8.693,8.693,6.174,6.174,0,1,0,8.693-8.693Z" transform="translate(-98.721 -178.356)" fill="#d10028"/>
          </g>
          <g id="Group_40841" data-name="Group 40841" transform="translate(2.292 3.354)">
            <g id="Group_40840" data-name="Group 40840">
              <path id="Path_88873" data-name="Path 88873" d="M107.3,195.9a1.079,1.079,0,0,1-.765-.317l-2.131-2.131a1.082,1.082,0,0,1,1.53-1.53l1.366,1.366,2.71-2.71a1.082,1.082,0,0,1,1.53,1.53l-3.475,3.475a1.079,1.079,0,0,1-.765.317Z" transform="translate(-104.088 -190.264)" fill="#f1f2f2"/>
            </g>
          </g>
        </g>
      </g>
    </g>
  </g>
</svg>
